<svg width="32" height="32" viewBox="0 0 32 32" fill="none" xmlns="http://www.w3.org/2000/svg">
<path fill-rule="evenodd" clip-rule="evenodd" d="M3 11C3 9.89543 3.89543 9 5 9H27C28.1046 9 29 9.89543 29 11V15C29 16.1046 28.1046 17 27 17H5C3.89543 17 3 16.1046 3 15V11ZM27 11H5V15H27V11Z" fill="white"/>
<path fill-rule="evenodd" clip-rule="evenodd" d="M6 15C6.55228 15 7 15.4477 7 16V25H25V16C25 15.4477 25.4477 15 26 15C26.5523 15 27 15.4477 27 16V25C27 25.5304 26.7893 26.0391 26.4142 26.4142C26.0391 26.7893 25.5304 27 25 27H7C6.46957 27 5.96086 26.7893 5.58579 26.4142C5.21071 26.0391 5 25.5304 5 25V16C5 15.4477 5.44772 15 6 15Z" fill="white"/>
<path fill-rule="evenodd" clip-rule="evenodd" d="M16 9C16.5523 9 17 9.44772 17 10V26C17 26.5523 16.5523 27 16 27C15.4477 27 15 26.5523 15 26V10C15 9.44772 15.4477 9 16 9Z" fill="white"/>
<path fill-rule="evenodd" clip-rule="evenodd" d="M18.1213 5.04293C17.9267 5.24 17.7231 5.60244 17.5449 6.13881C17.3718 6.65956 17.25 7.2591 17.1665 7.84435C17.1096 8.2431 17.0721 8.62396 17.0473 8.95269C17.376 8.92792 17.7569 8.89033 18.1556 8.83344C18.7409 8.74994 19.3404 8.62819 19.8612 8.45512C20.3976 8.27685 20.76 8.07327 20.9571 7.87868C21.3321 7.5028 21.5427 6.9935 21.5427 6.46248C21.5427 5.93067 21.3314 5.42063 20.9554 5.04459C20.5793 4.66854 20.0693 4.45728 19.5375 4.45728C19.0065 4.45728 18.4972 4.66792 18.1213 5.04293ZM21.6625 8.58748L22.3696 9.29459C23.1207 8.54346 23.5427 7.52473 23.5427 6.46248C23.5427 5.40023 23.1207 4.38149 22.3696 3.63037C21.6185 2.87925 20.5997 2.45728 19.5375 2.45728C18.4753 2.45728 17.4565 2.87925 16.7054 3.63037L16.7023 3.63349C16.191 4.14926 15.8655 4.85041 15.6469 5.50803C15.4227 6.18259 15.2796 6.90961 15.1866 7.56186C15.093 8.21806 15.0466 8.82323 15.0235 9.26307C15.0118 9.48375 15.006 9.66468 15.003 9.79187C15.0015 9.85551 15.0008 9.90582 15.0004 9.94105L15.0001 9.98243L15 9.99426L15 9.9979L15 9.99913C15 9.99933 15 9.99998 16 9.99998L15 9.99913C15 10.2643 15.1054 10.5195 15.2929 10.7071C15.4804 10.8946 15.7348 11 16 11V9.99998C16 11 15.9998 11 16 11L16.0021 11L16.0057 11L16.0175 10.9999L16.0589 10.9996C16.0942 10.9992 16.1445 10.9984 16.2081 10.997C16.3353 10.994 16.5162 10.9881 16.7369 10.9765C17.1768 10.9534 17.7819 10.907 18.4381 10.8134C19.0904 10.7203 19.8174 10.5772 20.492 10.353C21.1496 10.1345 21.8507 9.80893 22.3665 9.29769L21.6625 8.58748Z" fill="white"/>
<path fill-rule="evenodd" clip-rule="evenodd" d="M9.63037 3.63037C10.3815 2.87925 11.4002 2.45728 12.4625 2.45728C13.5247 2.45728 14.5435 2.87925 15.2946 3.63037L15.2977 3.63349C15.8089 4.14925 16.1345 4.85041 16.353 5.50803C16.5772 6.18259 16.7203 6.90961 16.8134 7.56186C16.907 8.21806 16.9534 8.82323 16.9765 9.26307C16.9881 9.48375 16.994 9.66468 16.997 9.79187C16.9984 9.85551 16.9992 9.90582 16.9996 9.94105L16.9999 9.98243L17 9.99426L17 9.9979L17 9.99913C17 9.99933 17 9.99998 16 9.99998C16 11 15.9998 11 15.9996 11L15.9979 11L15.9943 11L15.9824 10.9999L15.9411 10.9996C15.9058 10.9992 15.8555 10.9984 15.7919 10.997C15.6647 10.994 15.4837 10.9881 15.2631 10.9765C14.8232 10.9534 14.2181 10.907 13.5619 10.8134C12.9096 10.7203 12.1826 10.5772 11.508 10.353C10.8504 10.1345 10.1493 9.80893 9.63349 9.29769L10.3375 8.58748L9.63037 9.29459C8.87925 8.54346 8.45728 7.52473 8.45728 6.46248C8.45728 5.40023 8.87925 4.38149 9.63037 3.63037ZM11.0429 7.87868C11.24 8.07327 11.6024 8.27685 12.1388 8.45512C12.6596 8.62819 13.2591 8.74994 13.8444 8.83344C14.2431 8.89033 14.624 8.92792 14.9527 8.95269C14.9279 8.62396 14.8903 8.2431 14.8334 7.84435C14.7499 7.2591 14.6282 6.65956 14.4551 6.13881C14.2768 5.60242 14.0733 5.23996 13.8787 5.0429C13.5028 4.66791 12.9935 4.45728 12.4625 4.45728C11.9307 4.45728 11.4206 4.66854 11.0446 5.04459C10.6685 5.42063 10.4573 5.93067 10.4573 6.46248C10.4573 6.9935 10.6679 7.5028 11.0429 7.87868ZM16 9.99998L15.9996 11C16.2648 11 16.5195 10.8946 16.7071 10.7071C16.8946 10.5195 17 10.2643 17 9.99913L16 9.99998Z" fill="white"/>
</svg>
