<svg width="416" height="244" viewBox="0 0 416 244" fill="none" xmlns="http://www.w3.org/2000/svg">
<path d="M0 0C3.06216 3.20669 3.78442 7.24522 3.78442 14.0174V104.783C3.78442 111.552 3.06216 115.594 0.630736 118.801H26.3029C30.7181 118.801 32.6993 111.552 32.6993 106.803C32.6993 83.8729 8.73878 83.6348 8.73878 51.9137C8.73878 49.6596 9.90874 48.9452 10.72 48.9452C18.1973 48.9452 24.3217 70.4492 37.6537 70.4492C48.7324 70.4492 53.0585 58.4511 53.0585 50.4882C53.0585 46.6878 52.2472 43.7192 50.8052 43.7192C49.2741 43.7192 48.3737 48.3515 44.2307 48.3515C37.2035 48.3515 29.276 38.6107 20.3592 38.6107C13.9628 38.6107 12.0706 43.0048 9.90874 43.0048C8.91935 43.0048 8.73878 41.9348 8.73878 41.103V33.7371C8.73878 29.2255 11.1702 23.9963 15.4938 23.9963H46.6621C57.2016 23.9963 58.0129 33.1434 60.8945 33.1434C62.6061 33.1434 62.9672 31.3622 62.9672 28.3937V0H0Z" fill="white"/>
<path d="M67.0129 100.269C67.0129 111.673 74.3097 120.582 83.0485 120.582C95.9303 120.582 98.5423 109.533 102.324 109.533C103.677 109.533 104.397 111.673 104.667 113.692C105.117 116.899 106.65 118.801 109.351 118.801H131.422C128.988 115.594 128.269 111.552 128.269 104.783V69.4968C128.269 52.5108 118.54 33.8579 97.8225 33.8579C88.2724 33.8579 78.8139 35.639 72.6896 43.3605C70.3472 46.2116 70.8864 50.4883 70.8864 54.5301V61.0642C70.8864 63.0834 72.2394 64.8646 73.679 64.8646C79.2641 64.8646 85.1212 40.6301 96.4695 40.392C103.136 40.2745 104.308 47.1642 104.308 52.3901C104.308 54.5301 103.677 56.9049 101.065 57.6194C84.1294 62.2516 67.0129 74.9642 67.0129 100.269ZM101.065 65.3408C103.497 65.3408 104.308 67.3601 104.308 72.7068C104.308 80.0727 104.397 84.4668 104.397 91.9501C104.397 99.6749 101.966 105.495 97.1003 105.495C90.4343 105.495 88.5421 97.4175 88.5421 89.099C88.5421 74.4879 95.2081 65.3408 101.065 65.3408Z" fill="white"/>
<path d="M132.316 35.6392C134.747 38.8458 135.469 42.8876 135.469 49.6598V69.9732L135.559 92.6647C135.559 105.018 137.812 120.582 150.963 120.582C166.185 120.582 168.077 104.069 171.77 104.069C172.131 104.069 172.401 104.069 172.401 106.92V108.94C172.401 115.001 173.482 118.801 177.355 118.801H199.426C196.992 115.594 196.272 111.552 196.272 104.784V49.6598C196.272 42.8876 196.992 38.8458 199.426 35.6392H169.25C171.681 38.8458 172.401 42.8876 172.401 49.6598V81.9714C172.401 95.1602 168.619 98.8432 164.473 98.8432C160.511 98.8432 159.341 93.7347 159.341 88.2673V49.6598C159.341 42.8876 160.061 38.8458 162.492 35.6392H132.316Z" fill="white"/>
<path d="M231.65 142.951C229.219 139.744 228.499 135.702 228.499 128.933V96.6185C228.499 83.4297 232.281 79.7467 236.424 79.7467C240.389 79.7467 241.559 84.8552 241.559 90.3226V128.933C241.559 135.702 240.839 139.744 238.408 142.951H268.584C266.153 139.744 265.43 135.702 265.43 128.933V108.617L265.341 85.9252C265.341 73.5715 263.088 58.0078 249.937 58.0078C234.715 58.0078 232.823 74.5208 229.13 74.5208C228.769 74.5208 228.499 74.5208 228.499 71.6697V69.6504C228.499 63.5926 227.418 59.7889 223.545 59.7889H201.474C203.905 62.9956 204.628 67.0374 204.628 73.8096V128.933C204.628 135.702 203.905 139.744 201.474 142.951H231.65Z" fill="white"/>
<path d="M271.279 100.269C271.279 111.673 278.576 120.582 287.315 120.582C300.197 120.582 302.809 109.533 306.59 109.533C307.943 109.533 308.663 111.673 308.933 113.692C309.383 116.899 310.917 118.801 313.618 118.801H335.688C333.255 115.594 332.535 111.552 332.535 104.783V69.4968C332.535 52.5108 322.807 33.8579 302.089 33.8579C292.539 33.8579 283.08 35.639 276.956 43.3605C274.613 46.2116 275.153 50.4883 275.153 54.5301V61.0642C275.153 63.0834 276.506 64.8646 277.945 64.8646C283.53 64.8646 289.387 40.6301 300.736 40.392C307.402 40.2745 308.574 47.1642 308.574 52.3901C308.574 54.5301 307.943 56.9049 305.331 57.6194C288.396 62.2516 271.279 74.9642 271.279 100.269ZM305.331 65.3408C307.763 65.3408 308.574 67.3601 308.574 72.7068C308.574 80.0727 308.663 84.4668 308.663 91.9501C308.663 99.6749 306.232 105.495 301.367 105.495C294.7 105.495 292.808 97.4175 292.808 89.099C292.808 74.4879 299.474 65.3408 305.331 65.3408Z" fill="white"/>
<path d="M18.2117 139.217V198.743C18.2117 234.479 37.051 243.298 49.9643 243.298C62.8776 243.298 81.9816 234.479 81.9816 198.743V139.217C81.9816 132.602 82.6907 128.658 85.6974 125.526H55.2709C58.2776 128.658 58.9868 132.602 58.9868 139.217V196.188C58.9868 210.344 51.7324 217.888 42.977 217.888C33.9544 217.888 22.5445 212.434 22.5445 197.698C22.5445 174.955 46.5156 161.379 46.5156 135.62C46.5156 131.21 44.4803 125.526 40.8543 125.526H14.4958C17.5026 128.658 18.2117 132.602 18.2117 139.217Z" fill="white"/>
<path d="M87.4595 241.558H117.089C114.702 238.426 113.995 234.479 113.995 227.867V196.306C113.995 189.924 115.057 181.105 122.486 181.105C131.064 181.105 130.093 191.316 133.896 191.316C135.487 191.316 137.522 185.167 139.999 178.785C142.209 172.983 144.774 166.949 144.774 165.556C144.774 161.032 138.406 158.595 133.719 158.595C119.831 158.595 117.709 174.723 114.615 174.723C114.26 174.723 113.995 174.723 113.995 171.938V169.966C113.995 164.049 112.934 160.334 109.131 160.334H87.4595C89.8469 163.466 90.556 167.414 90.556 174.028V227.867C90.556 234.479 89.8469 238.426 87.4595 241.558Z" fill="white"/>
<path d="M144.77 137.939C144.77 139.331 145.831 139.449 146.096 139.564C150.254 141.421 149.899 147.109 149.899 148.501V227.867C149.899 234.478 149.193 238.426 146.803 241.558H168.474C172.277 241.558 173.338 237.961 173.338 232.044V230.884C173.338 229.26 174.312 230.072 174.929 231.346C179.706 241.211 185.013 243.298 189.613 243.298C205.533 243.298 214.643 225.083 214.643 202.569C214.643 181.684 207.036 158.595 189.613 158.595C179.794 158.595 176.522 167.761 174.754 167.761C174.135 167.761 173.693 167.646 173.338 166.601V128.31C173.338 125.988 173.251 123.783 170.684 123.783C165.467 123.783 149.28 134.46 145.741 136.432C145.567 136.547 144.77 136.779 144.77 137.939ZM173.338 210.461V187.834C173.338 181.917 174.222 170.778 179.706 170.778C189.523 170.778 191.294 186.674 191.294 199.323C191.294 212.781 190.939 228.794 181.122 228.794C174.045 228.794 173.338 216.843 173.338 210.461Z" fill="white"/>
<path d="M219.059 223.458C219.059 234.596 226.223 243.298 234.804 243.298C247.452 243.298 250.017 232.506 253.731 232.506C255.059 232.506 255.766 234.596 256.03 236.569C256.473 239.701 257.978 241.558 260.63 241.558H282.302C279.912 238.426 279.205 234.479 279.205 227.867V193.403C279.205 176.813 269.653 158.595 249.31 158.595C239.933 158.595 230.646 160.334 224.633 167.876C222.333 170.661 222.862 174.838 222.862 178.785V185.167C222.862 187.139 224.191 188.879 225.604 188.879C231.088 188.879 236.839 165.209 247.982 164.977C254.527 164.862 255.678 171.591 255.678 176.695C255.678 178.785 255.059 181.105 252.494 181.802C235.865 186.327 219.059 198.743 219.059 223.458ZM252.494 189.344C254.882 189.344 255.678 191.316 255.678 196.538C255.678 203.733 255.766 208.024 255.766 215.333C255.766 222.878 253.378 228.562 248.601 228.562C242.056 228.562 240.198 220.673 240.198 212.549C240.198 198.278 246.743 189.344 252.494 189.344Z" fill="white"/>
<path d="M313.251 241.558C310.863 238.426 310.157 234.479 310.157 227.867V196.306C310.157 183.424 313.87 179.827 317.938 179.827C321.831 179.827 322.98 184.817 322.98 190.156V227.867C322.98 234.479 322.273 238.426 319.886 241.558H349.516C347.128 238.426 346.419 234.479 346.419 227.867V208.024L346.332 185.862C346.332 173.796 344.119 158.595 331.206 158.595C316.26 158.595 314.402 174.723 310.776 174.723C310.421 174.723 310.157 174.723 310.157 171.938V169.966C310.157 164.049 309.095 160.334 305.292 160.334H283.621C286.008 163.466 286.718 167.414 286.718 174.028V227.867C286.718 234.479 286.008 238.426 283.621 241.558H313.251Z" fill="white"/>
<path d="M352.162 223.458C352.162 234.596 359.327 243.298 367.907 243.298C380.556 243.298 383.12 232.506 386.834 232.506C388.162 232.506 388.869 234.596 389.134 236.569C389.576 239.701 391.082 241.558 393.734 241.558H415.405C413.015 238.426 412.308 234.479 412.308 227.867V193.403C412.308 176.813 402.756 158.595 382.414 158.595C373.036 158.595 363.749 160.334 357.736 167.876C355.436 170.661 355.965 174.838 355.965 178.785V185.167C355.965 187.139 357.294 188.879 358.707 188.879C364.191 188.879 369.942 165.209 381.085 164.977C387.63 164.862 388.782 171.591 388.782 176.695C388.782 178.785 388.162 181.105 385.598 181.802C368.968 186.327 352.162 198.743 352.162 223.458ZM385.598 189.344C387.985 189.344 388.782 191.316 388.782 196.538C388.782 203.733 388.869 208.024 388.869 215.333C388.869 222.878 386.482 228.562 381.704 228.562C375.159 228.562 373.301 220.673 373.301 212.549C373.301 198.278 379.846 189.344 385.598 189.344Z" fill="white"/>
</svg>
