<svg width="32" height="32" viewBox="0 0 32 32" fill="none" xmlns="http://www.w3.org/2000/svg">
<path fill-rule="evenodd" clip-rule="evenodd" d="M26.5 12C25.6716 12 25 12.6716 25 13.5C25 14.3284 25.6716 15 26.5 15C27.3284 15 28 14.3284 28 13.5C28 12.6716 27.3284 12 26.5 12ZM23 13.5C23 11.567 24.567 10 26.5 10C28.433 10 30 11.567 30 13.5C30 15.433 28.433 17 26.5 17C24.567 17 23 15.433 23 13.5Z" fill="white"/>
<path fill-rule="evenodd" clip-rule="evenodd" d="M5.5 12C4.67157 12 4 12.6716 4 13.5C4 14.3284 4.67157 15 5.5 15C6.32843 15 7 14.3284 7 13.5C7 12.6716 6.32843 12 5.5 12ZM2 13.5C2 11.567 3.567 10 5.5 10C7.433 10 9 11.567 9 13.5C9 15.433 7.433 17 5.5 17C3.567 17 2 15.433 2 13.5Z" fill="white"/>
<path fill-rule="evenodd" clip-rule="evenodd" d="M11.5 6C10.6716 6 10 6.67157 10 7.5C10 8.32843 10.6716 9 11.5 9C12.3284 9 13 8.32843 13 7.5C13 6.67157 12.3284 6 11.5 6ZM8 7.5C8 5.567 9.567 4 11.5 4C13.433 4 15 5.567 15 7.5C15 9.433 13.433 11 11.5 11C9.567 11 8 9.433 8 7.5Z" fill="white"/>
<path fill-rule="evenodd" clip-rule="evenodd" d="M20.5 6C19.6716 6 19 6.67157 19 7.5C19 8.32843 19.6716 9 20.5 9C21.3284 9 22 8.32843 22 7.5C22 6.67157 21.3284 6 20.5 6ZM17 7.5C17 5.567 18.567 4 20.5 4C22.433 4 24 5.567 24 7.5C24 9.433 22.433 11 20.5 11C18.567 11 17 9.433 17 7.5Z" fill="white"/>
<path fill-rule="evenodd" clip-rule="evenodd" d="M12.6912 13.0868C13.6448 12.3686 14.8062 11.9802 16 11.9802C17.1938 11.9802 18.3552 12.3686 19.3088 13.0868C20.2624 13.805 20.9564 14.814 21.2861 15.9613C21.6095 17.0867 22.3633 18.0392 23.3841 18.6125C24.356 19.1436 25.124 19.9824 25.5677 20.9973C26.0122 22.0142 26.1058 23.1501 25.8337 24.226C25.5616 25.3019 24.9392 26.2567 24.0647 26.94C23.1902 27.6233 22.1132 27.9962 21.0034 28L21.0006 28C20.3322 28.0004 19.6704 27.8681 19.0536 27.6109C18.0855 27.2096 17.0479 27.0031 16 27.0031C14.9521 27.0031 13.9144 27.2096 12.9463 27.6109C12.3295 27.8682 11.6677 28.0004 10.9994 28L10.9966 28C9.88678 27.9962 8.80979 27.6233 7.93527 26.94C7.06075 26.2567 6.43842 25.3019 6.1663 24.226C5.89419 23.1501 5.98776 22.0142 6.43229 20.9973C6.87596 19.9824 7.64405 19.1436 8.61592 18.6124C9.63671 18.0392 10.3905 17.0867 10.7139 15.9613C11.0436 14.814 11.7376 13.805 12.6912 13.0868Z" stroke="white" stroke-width="2" stroke-linecap="round" stroke-linejoin="round"/>
</svg>
