<svg width="32" height="32" viewBox="0 0 32 32" fill="none" xmlns="http://www.w3.org/2000/svg">
<path fill-rule="evenodd" clip-rule="evenodd" d="M14.6515 3.87336C15.02 3.53691 15.501 3.35034 16 3.35034C16.499 3.35034 16.98 3.53691 17.3485 3.87336C17.349 3.87381 17.3495 3.87426 17.35 3.87471L27.3475 12.96L27.3616 12.973C27.5592 13.1596 27.7175 13.3839 27.8271 13.6327C27.9367 13.8814 27.9955 14.1496 27.9999 14.4213L28 14.4375V27C28 27.5523 27.5523 28 27 28C26.4477 28 26 27.5523 26 27V14.4511C25.9996 14.447 25.9986 14.443 25.997 14.4392C25.9953 14.4355 25.9932 14.4322 25.9905 14.4292L16.0025 5.35259L16 5.35034L15.9975 5.35259L6.00947 14.4292C6.00682 14.4322 6.00465 14.4355 6.00305 14.4392C6.00138 14.443 6.00035 14.447 6 14.4511V27C6 27.5523 5.55228 28 5 28C4.44772 28 4 27.5523 4 27V14.4375L4.00013 14.4213C4.00453 14.1496 4.06326 13.8814 4.17288 13.6327C4.28249 13.3839 4.44076 13.1596 4.63838 12.973L4.65247 12.96L14.65 3.87471C14.6505 3.87426 14.651 3.87381 14.6515 3.87336Z" fill="white"/>
<path fill-rule="evenodd" clip-rule="evenodd" d="M1 27C1 26.4477 1.44772 26 2 26H30C30.5523 26 31 26.4477 31 27C31 27.5523 30.5523 28 30 28H2C1.44772 28 1 27.5523 1 27Z" fill="white"/>
<path fill-rule="evenodd" clip-rule="evenodd" d="M12.5858 18.5858C12.9609 18.2107 13.4696 18 14 18H18C18.5304 18 19.0391 18.2107 19.4142 18.5858C19.7893 18.9609 20 19.4696 20 20V27C20 27.5523 19.5523 28 19 28C18.4477 28 18 27.5523 18 27V20L14 20L14 27C14 27.5523 13.5523 28 13 28C12.4477 28 12 27.5523 12 27V20C12 19.4696 12.2107 18.9609 12.5858 18.5858Z" fill="white"/>
</svg>
